<svg version="1.1" id="Layer_1" xmlns="http://www.w3.org/2000/svg" x="0" y="0" viewBox="0 0 100 21" style="enable-background:new 0 0 100 21" xml:space="preserve"><style>.st0{enable-background:new}.st1{fill:#fff}.st2{fill:#5ce6cd}</style><g id="Page-1"><g id="Mobile"><g class="st0"><path class="st1" d="M112.2 518.5v-7.9l-1.2-.4v-1.1l2.7-.4.5.4v9.7c0 .8-.1 1.4-.2 2s-.4 1-.6 1.4-.6.7-1 .9-.8.3-1.2.4h-1l-.1-1h.4c.1 0 .2 0 .3-.1s.2 0 .2-.1c.3-.1.5-.3.6-.5s.3-.5.4-.8c.1-.3.2-.7.2-1.1v-1.4zm.6-11.4c-.2 0-.3 0-.5-.1-.1-.1-.3-.1-.4-.3s-.2-.2-.2-.4c-.1-.2-.1-.3-.1-.5s0-.4.1-.5.1-.3.2-.5c.1-.1.2-.2.4-.3.2-.1.4-.1.6-.1.2 0 .4 0 .5.1s.3.2.4.3c.1.1.2.2.2.4s.1.3.1.5 0 .4-.1.6-.1.3-.3.4c-.1.1-.3.2-.4.3 0 .1-.2.1-.5.1zM116.5 514c0-.8.1-1.6.4-2.2s.6-1.2 1.1-1.6 1-.8 1.5-1 1.1-.3 1.7-.3c.8 0 1.5.1 2.1.4.6.3 1 .6 1.4 1.1s.6 1 .8 1.7.3 1.3.3 2c0 .8-.1 1.6-.4 2.2s-.6 1.2-1.1 1.6-.9.8-1.5 1-1.1.3-1.7.3c-.8 0-1.5-.1-2-.4-.6-.3-1-.6-1.4-1.1s-.6-1-.8-1.7-.4-1.3-.4-2zm4.6 4.1c.8 0 1.5-.3 1.9-1s.6-1.7.6-3c0-.6 0-1.2-.1-1.7s-.2-1-.4-1.4c-.2-.4-.4-.7-.8-.9s-.7-.3-1.1-.3c-.8 0-1.5.3-1.9 1s-.6 1.7-.6 3c0 .6 0 1.2.1 1.7s.2 1 .4 1.4.4.7.8.9.7.3 1.1.3zM127.3 519v-1l1.1-.1v-12.3l-1.4-.2v-.8l2.9-.4.4.3v4.1l-.1 1.6c.2-.1.4-.3.6-.5s.5-.3.8-.5.6-.3 1-.3c.3-.1.7-.1 1.1-.1.6 0 1 .1 1.4.2.4.2.7.4.9.8s.4.8.5 1.3.1 1.2.1 1.9v4.9l1.3.1v1h-4.4v-.9l1.2-.2V513c0-.5 0-.9-.1-1.2s-.1-.6-.3-.9-.3-.4-.5-.5-.5-.2-.9-.2-.9.1-1.3.2-.9.4-1.2.6v6.9l1.3.1v1h-4.4zM139.4 519v-1l1.2-.1v-7.3l-1.2-.4v-1.1l2.5-.4.4.4v1.1c.2-.2.4-.3.7-.5.3-.2.6-.3.9-.4.3-.1.7-.2 1-.3s.7-.1 1-.1c.6 0 1.1.1 1.4.2s.7.4.9.7.4.8.4 1.3c.1.5.1 1.2.1 1.9v4.9l1.3.1v1h-4.4v-1l1.2-.1V513c0-.5 0-.9-.1-1.2s-.1-.6-.3-.9-.3-.4-.5-.5-.5-.2-.9-.2-.9.1-1.3.2l-1.2.6v6.9l1.2.1v1h-4.3zM151.5 519v-1l1.5-.2v-7.5h-1.7v-.9l1.7-.4v-.8c0-.6.1-1.1.4-1.6s.6-.9 1-1.3.8-.6 1.3-.9c.5-.2 1-.3 1.5-.3h.7c.2 0 .3.1.4.1v2c-.1 0-.1-.1-.2-.1s-.2-.1-.4-.2-.3-.1-.5-.1-.4-.1-.6-.1c-.2 0-.5 0-.7.1s-.4.1-.5.2-.2.3-.3.5c-.1.2-.1.5-.1.9v1.6h2.4v1.3H155v7.6l1.9.2v1h-5.4zM158.7 519v-1l1.4-.1v-7.3l-1.2-.4v-1.1l2.5-.4.4.4v1.6c0-.1.2-.2.3-.4l.7-.7c.3-.3.6-.4 1-.6.4-.2.8-.3 1.3-.3h.3c.1 0 .2 0 .2.1v2.2s-.1 0-.1-.1-.1 0-.2-.1h-.6c-.7 0-1.2.1-1.6.2-.4.1-.7.3-1 .5v6.4l2.4.2v.9h-5.8zM168.5 523.5H167.4v-1.6s.1 0 .2.1.2 0 .3 0h.6c.2 0 .4 0 .6-.1.2 0 .5-.2.7-.4.2-.2.5-.5.8-.9.3-.4.5-.9.8-1.6h-1.1l-3.3-8.8-.8-.2v-1h4.4v.9l-1.4.2 1.8 5.4.8 2.6.7-2.6 1.5-5.4-1.2-.2v-.9h3.7v.9l-.9.2c-.5 1.4-.9 2.7-1.2 3.8-.3 1.1-.6 2-.8 2.7-.2.7-.4 1.3-.6 1.8-.1.4-.2.7-.3.9-.3.7-.6 1.3-.8 1.8-.3.5-.6.9-.9 1.3-.3.3-.7.6-1.1.8-.4.2-.9.3-1.4.3z" transform="translate(-110 -503)"/></g><g class="st0"><path class="st2" d="M179.6 519.2c-.2 0-.3 0-.5-.1s-.3-.1-.4-.2c-.1-.1-.2-.2-.3-.4-.1-.2-.1-.3-.1-.5s0-.4.1-.6c.1-.2.2-.3.3-.5s.3-.2.5-.3.4-.1.5-.1c.2 0 .4 0 .6.1s.3.2.4.3c.1.1.2.2.2.4 0 .1.1.3.1.5s0 .4-.1.6-.2.3-.3.4-.3.2-.5.3c-.1.1-.3.1-.5.1zM183.9 519v-.9l1.1-.2v-7.3l-1.2-.4v-1.1l2.5-.4.4.4v1.1c.2-.2.4-.3.7-.5.3-.2.6-.3.9-.4.3-.1.7-.2 1-.3.3-.1.7-.1 1-.1.7 0 1.2.1 1.6.3.4.2.7.5.9 1 .2-.1.4-.3.7-.4.3-.2.6-.3.9-.4s.7-.2 1-.3.7-.1.9-.1c.6 0 1 .1 1.4.2.4.2.7.4.9.7.2.3.4.8.4 1.3.1.5.1 1.2.1 1.9v5l1.3.2v.9h-4.3v-.9l1.1-.2V513c0-.5 0-.9-.1-1.3s-.1-.7-.3-.9c-.1-.2-.3-.4-.6-.5-.2-.1-.6-.2-1-.2-.2 0-.4 0-.6.1-.2 0-.4.1-.6.2s-.4.2-.6.2-.4.2-.5.3c.1.6.2 1.2.2 2.1v4.9l1.3.2v.9H190v-.9l1.2-.2V513c0-.5 0-.9-.1-1.2 0-.4-.1-.6-.3-.9-.1-.2-.3-.4-.5-.5s-.5-.2-.9-.2-.9.1-1.3.2-.8.4-1.2.6v6.9l1.2.2v.9h-4.2zM206.2 519.2c-.7 0-1.4-.1-2-.4-.6-.3-1-.6-1.4-1.1s-.7-1-.8-1.7c-.2-.6-.3-1.3-.3-2.1s.1-1.5.4-2.1c.2-.6.6-1.2 1-1.7s.9-.8 1.5-1.1 1.2-.4 1.9-.4c1.1 0 2 .3 2.6.9.6.6.9 1.5 1 2.7v1c0 .3 0 .5-.1.8h-6.1v.1c0 .7.1 1.2.3 1.7s.4.9.7 1.2c.3.3.6.5.9.7s.7.2 1.1.2c.3 0 .5 0 .8-.1s.5-.1.7-.2c.2-.1.5-.2.7-.3.2-.1.4-.2.5-.3l.4.9c-.2.2-.4.3-.6.5-.3.2-.6.3-.9.4-.3.1-.7.2-1 .3s-.9.1-1.3.1zm-.2-9.4c-.3 0-.6.1-.8.2s-.5.3-.7.5c-.2.2-.3.6-.5 1-.1.4-.2.9-.2 1.5h4.1v-.8c0-.3 0-.6-.1-.9s-.2-.6-.3-.8-.4-.4-.6-.5c-.2-.1-.5-.2-.9-.2z" transform="translate(-110 -503)"/></g></g></g></svg>